<svg width="37" height="37" viewBox="0 0 37 37" fill="none" xmlns="http://www.w3.org/2000/svg">
<g id="ArrowUpRight">
<path id="Vector" d="M28.7546 9.15618V24.035C28.7546 24.3386 28.634 24.6297 28.4194 24.8443C28.2048 25.0589 27.9136 25.1795 27.6101 25.1795C27.3066 25.1795 27.0154 25.0589 26.8008 24.8443C26.5862 24.6297 26.4656 24.3386 26.4656 24.035V11.9188L10.1075 28.2783C9.8927 28.4931 9.60142 28.6137 9.2977 28.6137C8.99399 28.6137 8.70271 28.4931 8.48795 28.2783C8.27319 28.0636 8.15254 27.7723 8.15254 27.4686C8.15254 27.1649 8.27319 26.8736 8.48795 26.6588L24.8475 10.3007H12.7313C12.4277 10.3007 12.1366 10.1801 11.922 9.96548C11.7073 9.75084 11.5868 9.45973 11.5868 9.15618C11.5868 8.85264 11.7073 8.56152 11.922 8.34688C12.1366 8.13224 12.4277 8.01166 12.7313 8.01166H27.6101C27.9136 8.01166 28.2048 8.13224 28.4194 8.34688C28.634 8.56152 28.7546 8.85264 28.7546 9.15618Z" fill="white"/>
</g>
</svg>
