<svg width="25" height="24" viewBox="0 0 25 24" fill="none" xmlns="http://www.w3.org/2000/svg">
<g id="flag_1_line" clip-path="url(#clip0_841_1382)">
<g id="Group">
<path id="Vector" fill-rule="evenodd" clip-rule="evenodd" d="M6.66602 3C6.13558 3 5.62687 3.21071 5.2518 3.58579C4.87673 3.96086 4.66602 4.46957 4.66602 5V21C4.66602 21.2652 4.77137 21.5196 4.95891 21.7071C5.14645 21.8946 5.4008 22 5.66602 22C5.93123 22 6.18559 21.8946 6.37312 21.7071C6.56066 21.5196 6.66602 21.2652 6.66602 21V16H20.47C20.673 16.0001 20.872 15.944 21.045 15.838C21.2181 15.732 21.3584 15.5802 21.4506 15.3993C21.5427 15.2185 21.583 15.0157 21.567 14.8134C21.551 14.6111 21.4794 14.4171 21.36 14.253L17.902 9.5L21.358 4.747C21.4773 4.58294 21.549 4.38908 21.565 4.18686C21.581 3.98463 21.5408 3.78192 21.4488 3.60112C21.3568 3.42032 21.2166 3.26849 21.0437 3.1624C20.8708 3.05632 20.6719 3.00011 20.469 3H6.66602ZM6.66602 14V5H18.702L16.072 8.618C15.8857 8.87433 15.7853 9.18309 15.7853 9.5C15.7853 9.81691 15.8857 10.1257 16.072 10.382L18.701 14H6.66602Z" fill="white"/>
</g>
</g>
<defs>
<clipPath id="clip0_841_1382">
<rect width="24" height="24" fill="white" transform="translate(0.666016)"/>
</clipPath>
</defs>
</svg>
