<svg width="25" height="24" viewBox="0 0 25 24" fill="none" xmlns="http://www.w3.org/2000/svg">
<g id="head_line" clip-path="url(#clip0_841_1373)">
<g id="Group">
<path id="Vector" fill-rule="evenodd" clip-rule="evenodd" d="M5.33475 10C5.33475 8.64706 5.67787 7.31622 6.33203 6.13194C6.98618 4.94766 7.93 3.94862 9.07522 3.22826C10.2204 2.5079 11.5296 2.08975 12.8804 2.01291C14.2312 1.93608 15.5793 2.20306 16.7989 2.7889C18.0184 3.37474 19.0694 4.2603 19.8536 5.36275C20.6379 6.46521 21.1297 7.74855 21.2831 9.09276C21.4366 10.437 21.2466 11.7981 20.731 13.049C20.2153 14.2998 19.3909 15.3994 18.3347 16.245V20.5C18.3347 20.8978 18.1767 21.2794 17.8954 21.5607C17.6141 21.842 17.2326 22 16.8347 22H11.8347C11.4369 22 11.0554 21.842 10.7741 21.5607C10.4928 21.2794 10.3347 20.8978 10.3347 20.5V19H9.10075C8.3695 19 7.66341 18.733 7.1152 18.2491C6.567 17.7651 6.21442 17.0976 6.12375 16.372L5.98375 15.249L5.23675 15.1C5.01914 15.0564 4.81392 14.9651 4.63587 14.8326C4.45782 14.7002 4.31138 14.5298 4.20711 14.3339C4.10285 14.138 4.04335 13.9214 4.03291 13.6997C4.02247 13.4781 4.06135 13.2568 4.14675 13.052L5.33675 10.194C5.33531 10.1293 5.33465 10.0647 5.33475 10ZM13.3347 4C12.5278 3.99996 11.7291 4.16272 10.9865 4.47852C10.2438 4.79432 9.57256 5.25668 9.01277 5.83794C8.45299 6.41919 8.01622 7.10739 7.72858 7.86137C7.44094 8.61534 7.30835 9.41959 7.33875 10.226C7.34675 10.436 7.31175 10.656 7.22375 10.866L6.22675 13.259L6.72875 13.359C7.03744 13.4208 7.31886 13.5782 7.53316 13.8088C7.74745 14.0394 7.88375 14.3316 7.92275 14.644L8.10775 16.124C8.13799 16.366 8.25561 16.5886 8.43848 16.7499C8.62136 16.9112 8.85688 17.0002 9.10075 17H10.8347C11.2326 17 11.6141 17.158 11.8954 17.4393C12.1767 17.7206 12.3347 18.1022 12.3347 18.5V20H16.3347V16.006C16.3347 15.509 16.5787 15.069 16.9437 14.794C17.9493 14.0372 18.6914 12.9834 19.0651 11.7816C19.4388 10.5798 19.4252 9.29099 19.0261 8.09741C18.627 6.90383 17.8628 5.86596 16.8414 5.13064C15.82 4.39532 14.5933 3.99979 13.3347 4Z" fill="white"/>
</g>
</g>
<defs>
<clipPath id="clip0_841_1373">
<rect width="24" height="24" fill="white" transform="translate(0.333984)"/>
</clipPath>
</defs>
</svg>
