<svg width="28" height="29" viewBox="0 0 28 29" fill="none" xmlns="http://www.w3.org/2000/svg">
<g id="Linkedin--Streamline-Core">
<g id="linkedin--network-linkedin-professional">
<path id="Union" fill-rule="evenodd" clip-rule="evenodd" d="M8.1849 7.71561C8.55347 7.33567 8.75779 6.82599 8.75367 6.29665C8.73448 5.78317 8.51987 5.29641 8.15372 4.9359C7.78758 4.57539 7.29755 4.36835 6.78383 4.35712C6.2686 4.36814 5.77685 4.57467 5.40824 4.93483C5.03965 5.29498 4.82178 5.78182 4.79883 6.29665C4.80624 6.82508 5.01638 7.33044 5.38581 7.70833C5.75523 8.08622 6.25571 8.30773 6.78383 8.32712C7.31304 8.31519 7.81631 8.09554 8.1849 7.71561ZM6.41494 10.9431C5.58085 10.9242 5.01097 10.9113 5.01097 11.9335V23.2979C5.01097 24.299 5.5544 24.2782 6.3375 24.2485C6.47905 24.2431 6.62842 24.2374 6.78383 24.2374C6.93952 24.2374 7.08879 24.2431 7.22997 24.2485C8.00932 24.2782 8.54154 24.2986 8.54154 23.2979V11.9335C8.54154 10.9115 7.98352 10.9242 7.1526 10.9431C7.03489 10.9457 6.91169 10.9485 6.78383 10.9485C6.65616 10.9485 6.5329 10.9457 6.41494 10.9431ZM12.2236 10.9637C11.8448 11.0395 11.6024 11.2819 11.6024 11.9335V23.2979C11.6024 24.298 12.1231 24.2784 12.9076 24.2485C13.0502 24.2431 13.2016 24.2374 13.3601 24.2374C13.5183 24.2374 13.6697 24.2431 13.8127 24.2485C14.601 24.2784 15.1329 24.2984 15.1329 23.2979V17.2369C15.1028 16.9272 15.1388 16.6146 15.2385 16.3198C15.3383 16.0251 15.4995 15.7549 15.7115 15.5271C15.9235 15.2993 16.1815 15.1192 16.4684 14.9986C16.7552 14.878 17.0644 14.8197 17.3755 14.8276C17.6881 14.8091 18.0009 14.858 18.2929 14.9711C18.5849 15.0842 18.8489 15.2588 19.0675 15.4831C19.286 15.7073 19.4536 15.9759 19.5592 16.2707C19.6645 16.5655 19.7054 16.8795 19.6788 17.1914V23.2524C19.6788 24.2526 20.1996 24.2329 20.984 24.2031C21.1267 24.1977 21.278 24.1919 21.4364 24.1919C21.595 24.1919 21.7463 24.1977 21.8889 24.2031C22.6734 24.2329 23.1942 24.2526 23.1942 23.2524V15.4943C23.223 14.8574 23.1175 14.2214 22.8844 13.6279C22.6515 13.0343 22.2962 12.4964 21.8419 12.0492C21.3873 11.6019 20.8439 11.2552 20.2468 11.0316C19.6496 10.8081 19.0121 10.7127 18.3757 10.7516C17.7275 10.6926 17.0751 10.801 16.4808 11.0663C15.8865 11.3316 15.3703 11.745 14.9814 12.2668C14.9966 11.7062 14.8147 10.9637 14.3601 10.9637C14.2298 10.9637 14.0297 10.9575 13.8016 10.9504C13.2342 10.9327 12.4938 10.9097 12.2236 10.9637Z" fill="#838383"/>
</g>
</g>
</svg>
