<svg width="28" height="29" viewBox="0 0 28 29" fill="none" xmlns="http://www.w3.org/2000/svg">
<g id="telegram_fill" clip-path="url(#clip0_3307_4852)">
<g id="Group">
<path id="Vector" fill-rule="evenodd" clip-rule="evenodd" d="M22.9421 6.0016C23.2263 5.88199 23.5373 5.84074 23.8429 5.88214C24.1484 5.92353 24.4373 6.04607 24.6794 6.23699C24.9215 6.42791 25.108 6.68023 25.2195 6.9677C25.331 7.25516 25.3634 7.56726 25.3134 7.8715L22.7052 23.6921C22.4522 25.2181 20.7778 26.0933 19.3782 25.3331C18.2075 24.6972 16.4687 23.7174 14.9047 22.695C14.1227 22.1833 11.7273 20.5445 12.0217 19.3784C12.2747 18.3814 16.2997 14.6347 18.5997 12.4071C19.5024 11.532 19.0907 11.0271 18.0247 11.8321C15.3774 13.8308 11.127 16.8703 9.72168 17.7259C8.48198 18.4803 7.83568 18.6091 7.06288 18.4803C5.65298 18.2457 4.34543 17.8823 3.27823 17.4395C1.83613 16.8415 1.90628 14.8589 3.27708 14.2816L22.9421 6.0016Z" fill="#838383"/>
</g>
</g>
<defs>
<clipPath id="clip0_3307_4852">
<rect width="27.6" height="27.6" fill="white" transform="translate(0.199219 0.907104)"/>
</clipPath>
</defs>
</svg>
